<?xml version="1.0" encoding="UTF-8" standalone="no"?>
<!DOCTYPE svg PUBLIC "-//W3C//DTD SVG 1.1//EN" "http://www.w3.org/Graphics/SVG/1.1/DTD/svg11.dtd">
<svg xmlns="http://www.w3.org/2000/svg" version="1.1" viewBox="0.00 0.00 500.00 500.00">
<path fill="#161415" d="
  M 234.18 110.10
  C 210.77 113.54 190.95 121.19 171.54 134.75
  C 140.86 156.18 118.36 194.22 115.06 231.50
  C 113.97 243.77 114.23 258.84 116.60 271.05
  C 123.81 308.28 146.94 341.11 179.46 360.76
  C 186.22 364.85 194.59 368.15 202.24 371.71
  A 0.89 0.88 12.7 0 1 202.75 372.51
  L 202.72 382.68
  A 1.22 1.22 0.0 0 1 201.07 383.82
  Q 178.77 375.60 159.89 361.85
  Q 150.72 355.17 139.90 343.13
  C 123.60 324.99 111.26 301.49 106.16 278.25
  C 99.55 248.08 102.86 217.16 114.66 187.97
  C 124.60 163.38 141.23 143.23 162.05 127.07
  C 182.61 111.11 208.75 101.87 234.50 98.44
  A 1.13 1.13 0.0 0 1 235.78 99.60
  L 235.46 108.66
  A 1.50 1.50 0.0 0 1 234.18 110.10
  Z"
/>
<path fill="#161415" d="
  M 381.63 226.52
  C 378.26 201.53 366.09 175.20 349.00 156.64
  C 346.62 154.06 344.28 151.14 341.94 148.86
  Q 316.85 124.44 283.01 114.65
  Q 276.13 112.66 262.09 110.20
  Q 261.43 110.09 261.43 109.41
  L 261.50 99.59
  A 0.62 0.62 0.0 0 1 262.09 98.98
  Q 265.01 98.83 268.15 99.36
  C 298.31 104.40 324.71 116.96 348.15 138.86
  Q 370.22 159.48 382.36 186.97
  C 384.49 191.79 386.02 197.37 387.73 202.61
  C 399.21 237.86 395.78 278.75 378.88 311.75
  Q 370.83 327.46 360.57 339.32
  C 352.88 348.21 342.36 358.19 331.70 365.38
  Q 320.88 372.69 316.79 374.52
  C 309.51 377.77 302.11 381.43 294.49 383.77
  A 0.85 0.85 0.0 0 1 293.39 382.95
  L 293.42 373.12
  A 1.67 1.66 -12.0 0 1 294.41 371.60
  C 302.20 368.11 310.60 364.64 317.58 360.33
  C 327.05 354.48 336.60 347.48 344.23 339.32
  C 346.25 337.15 348.46 335.14 350.29 332.94
  Q 360.90 320.20 362.95 316.18
  C 366.28 309.68 370.29 302.91 372.85 296.65
  Q 386.57 263.07 381.63 226.52
  Z"
/>
<path fill="#161415" d="
  M 247.93 154.96
  Q 247.18 157.37 247.14 159.00
  C 246.92 167.82 245.96 177.93 245.62 185.35
  C 244.81 202.97 244.02 220.32 243.85 238.25
  Q 243.72 251.38 243.43 264.50
  Q 242.43 309.05 242.03 353.67
  A 1.33 1.33 0.0 0 1 240.70 354.99
  L 217.00 355.06
  A 1.45 1.44 85.0 0 1 215.58 353.86
  C 213.66 342.90 208.48 330.44 203.72 322.26
  C 199.98 315.84 196.50 309.25 192.20 303.32
  C 189.86 300.11 184.64 294.49 183.91 290.75
  Q 183.42 288.19 184.75 283.69
  Q 191.24 261.85 199.24 240.51
  Q 201.04 235.70 207.89 220.13
  C 218.66 195.66 228.06 170.58 236.59 145.24
  C 240.72 132.95 244.02 118.48 248.09 105.14
  Q 248.34 104.33 248.60 105.14
  C 253.86 122.02 257.85 139.32 263.71 156.02
  Q 277.12 194.22 293.22 231.35
  C 299.51 245.85 304.26 259.53 308.90 273.96
  Q 311.78 282.92 312.63 288.50
  C 312.99 290.87 311.60 293.18 309.95 295.26
  Q 302.33 304.81 296.13 315.37
  C 289.36 326.91 283.42 339.86 280.98 353.10
  A 2.00 2.00 0.0 0 1 279.04 354.73
  L 256.51 355.05
  Q 255.14 355.07 254.64 353.80
  Q 254.25 352.80 254.25 351.00
  Q 254.54 283.73 252.40 216.50
  C 251.99 203.85 251.02 186.07 249.74 170.36
  Q 249.16 163.20 249.10 156.00
  Q 249.09 155.17 248.55 154.76
  Q 248.10 154.42 247.93 154.96
  Z"
/>
<rect fill="#161415" x="216.10" y="363.78" width="64.70" height="11.24" rx="1.06"/>
<rect fill="#161415" x="216.09" y="383.27" width="64.74" height="10.52" rx="0.80"/>
</svg>
